<?xml version="1.0" standalone="no"?>
<!DOCTYPE svg PUBLIC "-//W3C//DTD SVG 20010904//EN"
 "http://www.w3.org/TR/2001/REC-SVG-20010904/DTD/svg10.dtd">
<svg version="1.0" xmlns="http://www.w3.org/2000/svg"
 width="700.000000pt" height="700.000000pt" viewBox="0 0 700.000000 700.000000"
 preserveAspectRatio="xMidYMid meet">
<metadata>
Created by potrace 1.11, written by Peter Selinger 2001-2013
</metadata>
<g transform="translate(0.000000,700.000000) scale(0.100000,-0.100000)"
fill="#000000" stroke="none">
<path d="M2798 6945 c-1 -1 -39 -6 -82 -9 -155 -13 -347 -48 -497 -91 -122
-35 -472 -164 -587 -216 -337 -153 -658 -346 -777 -467 -99 -101 -133 -212
-99 -324 43 -143 203 -240 367 -224 114 11 139 22 332 147 170 110 239 150
375 215 213 103 500 195 710 229 126 20 164 25 235 32 155 14 567 5 595 -12 3
-2 31 -6 61 -9 159 -16 455 -98 654 -183 81 -34 294 -141 327 -164 14 -11 29
-19 32 -19 6 0 59 -36 210 -140 32 -22 176 -140 220 -180 32 -29 174 -173 211
-214 160 -175 369 -508 473 -754 52 -122 131 -376 148 -472 3 -14 7 -32 9 -40
15 -50 42 -239 51 -360 5 -69 5 -353 0 -400 -3 -19 -7 -64 -11 -100 -10 -96
-11 -102 -18 -135 -3 -16 -9 -48 -12 -70 -18 -127 -87 -358 -159 -534 -221
-539 -600 -991 -1091 -1300 -132 -83 -350 -188 -505 -244 -130 -47 -375 -110
-470 -122 -30 -4 -57 -8 -60 -10 -32 -18 -502 -27 -650 -13 -118 12 -139 15
-295 44 -54 10 -219 53 -295 77 -234 75 -453 176 -670 307 -346 210 -390 232
-483 238 -102 6 -170 -21 -248 -99 -80 -80 -112 -145 -113 -229 0 -98 39 -168
159 -282 95 -89 113 -104 230 -190 292 -213 622 -367 990 -462 113 -29 354
-71 460 -81 39 -4 81 -8 94 -10 99 -16 487 -23 641 -11 124 9 309 32 400 51
183 36 293 66 450 119 74 26 140 48 145 50 11 3 31 11 125 51 108 45 276 132
429 220 30 17 156 99 161 105 3 3 24 18 47 33 141 90 454 373 605 544 63 71
164 202 237 306 58 84 191 299 191 310 0 3 15 31 33 64 18 32 45 87 61 123 16
36 39 88 51 115 21 46 71 182 110 300 24 72 93 361 100 420 4 28 8 57 10 65 3
8 9 58 15 110 6 52 13 113 16 135 12 97 6 491 -10 605 -2 14 -7 52 -10 85 -9
78 -63 345 -83 410 -125 415 -254 692 -473 1020 -137 204 -280 376 -480 575
-148 149 -182 179 -320 291 -256 208 -586 409 -850 520 -52 22 -104 44 -115
49 -98 47 -357 118 -540 149 -119 20 -139 23 -265 37 -36 4 -76 8 -90 11 -32
4 -407 12 -412 8z"/>
<path d="M2848 5635 c-2 -2 -32 -6 -68 -9 -36 -3 -76 -8 -90 -10 -14 -3 -41
-7 -60 -10 -169 -25 -416 -110 -586 -201 -316 -169 -434 -340 -367 -529 28
-77 93 -137 178 -164 124 -39 217 -21 405 75 169 87 324 146 445 169 22 5 42
9 45 9 71 18 155 25 280 26 179 0 289 -18 468 -77 387 -128 711 -418 883 -789
36 -79 83 -206 95 -260 11 -49 25 -123 30 -155 2 -19 7 -53 10 -75 8 -52 8
-215 0 -296 -45 -445 -293 -853 -671 -1106 -170 -114 -380 -194 -601 -230 -62
-10 -374 -10 -434 0 -79 13 -105 18 -122 23 -10 3 -29 7 -43 10 -67 12 -225
73 -360 140 -216 105 -270 126 -347 132 -115 8 -198 -30 -239 -109 -24 -48
-30 -79 -30 -167 1 -130 28 -189 124 -274 134 -119 294 -213 480 -282 98 -37
288 -89 362 -100 23 -4 51 -8 64 -11 101 -19 392 -26 521 -12 493 53 953 271
1300 617 124 123 148 150 228 259 263 353 415 799 416 1216 1 61 -3 133 -7
160 -4 28 -9 70 -12 95 -24 206 -67 405 -114 525 -10 28 -25 66 -32 85 -7 19
-41 90 -75 157 -205 405 -546 735 -974 944 -152 74 -381 154 -499 174 -19 3
-37 8 -40 10 -4 2 -27 6 -51 9 -25 4 -56 9 -70 11 -66 12 -128 17 -277 20 -89
1 -163 1 -165 0z"/>
<path d="M840 5031 c-59 -12 -137 -61 -205 -130 -36 -35 -66 -69 -66 -75 -1
-6 -3 -596 -3 -1311 l-2 -1300 45 -44 c104 -101 211 -150 311 -145 72 5 169
46 219 95 40 38 77 116 86 179 4 25 7 228 7 451 l0 405 361 3 c199 1 395 3
435 4 86 3 160 -14 216 -49 23 -15 73 -67 111 -117 121 -158 264 -256 445
-307 87 -25 255 -34 340 -18 397 72 685 401 694 793 6 239 -75 446 -238 608
-158 158 -342 236 -563 242 -161 4 -301 -31 -433 -109 -96 -56 -151 -105 -257
-228 -115 -134 -135 -146 -253 -154 -101 -7 -733 -11 -805 -6 l-43 4 -1 441
c0 243 -2 464 -5 491 -5 47 -41 134 -68 167 -65 78 -222 131 -328 110z"/>
</g>
</svg>
